<svg width="197" height="181" viewBox="0 0 197 181" fill="none" xmlns="http://www.w3.org/2000/svg">
<path d="M196.796 54.11L163.922 176.586C163.21 179.241 160.794 180.997 158.162 180.998C157.653 180.998 157.137 180.932 156.622 180.795L76.2061 159.284C73.0313 158.435 71.1405 155.165 71.9916 151.996L72.8588 148.766C73.4056 146.729 75.5025 145.522 77.5424 146.067C79.5823 146.612 80.7929 148.706 80.246 150.742L79.8156 152.345L156.971 172.984L188.972 53.7609L156.241 45.0061C154.202 44.4602 152.991 42.3669 153.537 40.3305C154.084 38.2941 156.182 37.0865 158.221 37.6311L192.581 46.822C195.757 47.672 197.647 50.941 196.796 54.11ZM70.5869 15.9342C68.4747 15.9342 66.7628 17.6432 66.7628 19.7517V23.3847C66.7628 25.4932 68.4747 27.2022 70.5869 27.2022C72.699 27.2022 74.4109 25.4932 74.4109 23.3847V19.7517C74.4109 17.6432 72.699 15.9342 70.5869 15.9342ZM119.348 67.145C120.284 68.4659 120.284 70.2321 119.348 71.5534L101.623 96.5774C100.907 97.5891 99.7423 98.191 98.5008 98.191C97.2597 98.191 96.095 97.5895 95.3787 96.5774L77.6529 71.5534C76.7173 70.2325 76.7173 68.4663 77.6529 67.145L95.3787 42.1209C96.0955 41.1093 97.2597 40.5074 98.5008 40.5074C99.7423 40.5074 100.907 41.1089 101.623 42.1209L119.348 67.145ZM111.543 69.349L98.5008 50.9368L85.4591 69.349L98.5008 87.7607L111.543 69.349ZM145.746 153.676L144.804 157.185C144.258 159.221 145.468 161.314 147.509 161.86C147.84 161.949 148.173 161.991 148.5 161.991C150.189 161.991 151.734 160.866 152.192 159.16L153.133 155.651C153.68 153.615 152.469 151.521 150.429 150.976C148.389 150.43 146.292 151.639 145.746 153.676ZM47.7475 83.7515C48.8424 83.4588 49.8958 83.2896 50.9147 83.2446V5.95062C50.9147 2.66928 53.5885 0 56.8751 0H140.127C143.414 0 146.088 2.66928 146.088 5.95062V83.2442C147.106 83.2892 148.16 83.4584 149.254 83.7511C156.269 85.6276 160.448 92.8524 158.568 99.8558C156.75 106.631 150.941 111.778 146.088 115.297V132.747C146.088 136.028 143.414 138.698 140.127 138.698H56.8751C53.5885 138.698 50.9147 136.028 50.9147 132.747V115.298C46.0615 111.78 40.2528 106.633 38.4329 99.8562C37.5224 96.4646 37.9902 92.9211 39.7501 89.8786C41.51 86.8365 44.3505 84.6601 47.7475 83.7515ZM146.088 105.442C148.863 102.824 150.517 100.352 151.18 97.8801C151.968 94.9431 150.216 91.9133 147.274 91.1261C146.829 91.0069 146.437 90.9348 146.088 90.8979V105.442ZM58.5628 131.063H138.44V113.376C138.439 113.342 138.439 113.307 138.44 113.273V87.863C138.438 87.8078 138.438 87.7523 138.44 87.6971V7.63498H58.5628V87.6984C58.564 87.7535 58.564 87.8091 58.5628 87.8647V113.271C58.5632 113.307 58.5632 113.343 58.5628 113.378V131.063ZM45.8206 97.8801C46.4847 100.353 48.1392 102.826 50.9147 105.444V90.8983C50.5654 90.9348 50.1728 91.0069 49.7275 91.1261C48.3028 91.507 47.1119 92.4202 46.3734 93.6969C45.6353 94.9733 45.439 96.4587 45.8206 97.8801ZM73.7515 163.964L40.0305 172.984L8.02915 53.7613L40.7592 45.0061C42.7992 44.4602 44.0101 42.3669 43.4633 40.3305C42.9164 38.2941 40.8183 37.0857 38.7801 37.6311L4.41966 46.8224C2.88409 47.233 1.59964 48.2179 0.802957 49.5956C0.00585409 50.9737 -0.206593 52.577 0.20513 54.1104L33.0793 176.585C33.4906 178.119 34.4772 179.402 35.8581 180.198C36.7784 180.729 37.7986 181 38.8323 181C39.349 181 39.8687 180.932 40.3807 180.796L75.7315 171.34C77.7714 170.794 78.9824 168.7 78.4355 166.664C77.8883 164.626 75.7914 163.419 73.7515 163.964ZM21.7962 58.6702C19.7563 59.2161 18.5457 61.3093 19.0921 63.3458L20.0341 66.8553C20.4922 68.5609 22.0371 69.6858 23.7256 69.6858C24.0532 69.6858 24.3863 69.6433 24.7178 69.5547C26.7577 69.0088 27.9682 66.9155 27.4218 64.8791L26.4798 61.3696C25.933 59.3327 23.8369 58.1247 21.7962 58.6702ZM126.415 111.496C124.303 111.496 122.591 113.205 122.591 115.313V118.946C122.591 121.055 124.303 122.764 126.415 122.764C128.527 122.764 130.239 121.055 130.239 118.946V115.313C130.239 113.205 128.527 111.496 126.415 111.496Z" fill="#6202EE"/>
</svg>
